<?xml version="1.0" encoding="utf-8"?>
<svg viewBox="0 0 1000 1000" style="shape-rendering:geometricPrecision; text-rendering:geometricPrecision; image-rendering:optimizeQuality; fill-rule:evenodd; clip-rule:evenodd" xmlns="http://www.w3.org/2000/svg">
  <g>
    <path style="opacity: 1;" d="M 416.5,142.5 C 427.495,146.037 438.829,148.704 450.5,150.5C 486.315,159.905 518.315,176.405 546.5,200C 563.081,215.584 575.248,234.084 583,255.5C 585.137,262.349 586.303,269.349 586.5,276.5C 586.173,281.544 586.506,286.544 587.5,291.5C 588.107,291.376 588.44,291.043 588.5,290.5C 625.218,275.101 663.552,267.768 703.5,268.5C 764.572,267.908 817.905,287.742 863.5,328C 892.602,356.69 911.435,391.19 920,431.5C 927.295,468.189 929.461,505.189 926.5,542.5C 925.732,543.263 925.232,544.263 925,545.5C 924.501,550.823 924.334,556.156 924.5,561.5C 924.414,565.857 924.08,570.19 923.5,574.5C 922.883,574.611 922.383,574.944 922,575.5C 921.501,579.152 921.335,582.818 921.5,586.5C 920.147,598.62 918.147,610.62 915.5,622.5C 914.883,622.611 914.383,622.944 914,623.5C 913.064,627.114 912.564,630.78 912.5,634.5C 912.5,635.167 912.5,635.833 912.5,636.5C 908.335,646.684 905.335,657.351 903.5,668.5C 891.475,714.084 868.142,752.584 833.5,784C 802.128,808.349 766.462,821.015 726.5,822C 678.855,824.839 631.189,825.173 583.5,823C 477.154,820.062 371.154,812.895 265.5,801.5C 260.402,800.043 255.069,799.376 249.5,799.5C 244.731,798.111 239.731,797.444 234.5,797.5C 233.5,797.5 232.5,797.5 231.5,797.5C 226.17,795.333 220.503,794.333 214.5,794.5C 205.537,793.753 196.87,792.086 188.5,789.5C 186.485,788.076 184.152,787.41 181.5,787.5C 179.485,786.076 177.152,785.41 174.5,785.5C 163.455,781.81 153.122,776.81 143.5,770.5C 143.027,769.094 142.027,768.427 140.5,768.5C 117.274,753.442 97.7739,734.442 82,711.5C 58.9588,679.745 42.6254,644.745 33,606.5C 30.7867,597.269 29.2867,587.936 28.5,578.5C 28.3443,568.605 27.3443,558.938 25.5,549.5C 24.1771,534.265 24.1771,518.931 25.5,503.5C 26.9573,498.402 27.624,493.069 27.5,487.5C 30.3048,458.392 42.3048,433.892 63.5,414C 80.3697,400.212 99.703,394.378 121.5,396.5C 121.611,397.117 121.944,397.617 122.5,398C 126.813,398.735 131.147,399.235 135.5,399.5C 137.937,399.756 140.271,400.423 142.5,401.5C 142.833,400.833 143.167,400.167 143.5,399.5C 139.132,382.904 137.799,366.237 139.5,349.5C 140.972,345.081 141.638,340.414 141.5,335.5C 142.293,328.179 143.96,321.179 146.5,314.5C 147.924,312.485 148.59,310.152 148.5,307.5C 169.29,242.541 209.624,193.708 269.5,161C 316.393,138.642 365.393,132.476 416.5,142.5 Z M 390.5,210.5 C 393.974,211.525 397.64,212.192 401.5,212.5C 411.566,214.183 421.566,216.183 431.5,218.5C 434.505,220.277 437.838,221.277 441.5,221.5C 459.571,228.203 476.571,237.036 492.5,248C 502.345,255.664 509.679,265.164 514.5,276.5C 515.2,280.798 515.533,285.131 515.5,289.5C 511.478,312.735 505.312,335.401 497,357.5C 485.885,385.729 474.219,413.729 462,441.5C 456.313,453.931 453.98,466.931 455,480.5C 457.619,493.44 464.786,502.773 476.5,508.5C 478.102,510.074 480.102,510.741 482.5,510.5C 496.414,514.26 508.581,510.927 519,500.5C 523.424,494.658 527.091,488.324 530,481.5C 541.222,448.719 556.889,418.385 577,390.5C 599.48,362.343 628.647,346.343 664.5,342.5C 681.788,340.854 699.121,340.188 716.5,340.5C 723.174,340.713 729.841,341.046 736.5,341.5C 739.974,342.525 743.64,343.192 747.5,343.5C 762.816,349.322 777.816,355.988 792.5,363.5C 792.973,364.906 793.973,365.573 795.5,365.5C 821.343,382.819 838.676,406.486 847.5,436.5C 848.055,440.397 849.055,444.063 850.5,447.5C 860.435,514.515 855.602,580.515 836,645.5C 828.267,676.148 813.434,702.648 791.5,725C 773.961,739.962 753.627,748.296 730.5,750C 704.367,751.837 678.2,752.67 652,752.5C 594.132,751.94 536.299,750.273 478.5,747.5C 470.335,746.58 462.002,745.913 453.5,745.5C 450.5,745.5 447.5,745.5 444.5,745.5C 436.681,744.443 428.681,743.776 420.5,743.5C 418.167,743.5 415.833,743.5 413.5,743.5C 401.341,742.178 389.008,741.178 376.5,740.5C 374.5,740.5 372.5,740.5 370.5,740.5C 350.625,738.508 330.625,736.508 310.5,734.5C 298.512,733.353 286.512,732.353 274.5,731.5C 265.346,729.853 256.012,728.52 246.5,727.5C 226.967,725.694 207.967,721.527 189.5,715C 174.272,706.781 161.105,695.948 150,682.5C 104.942,626.95 87.9419,563.617 99,492.5C 100.617,484.308 103.784,476.808 108.5,470C 110.366,469.015 112.366,468.515 114.5,468.5C 125.294,470.729 135.294,474.896 144.5,481C 153.324,486.998 161.99,493.164 170.5,499.5C 170.973,500.906 171.973,501.573 173.5,501.5C 188.643,514.469 203.976,527.302 219.5,540C 224.412,543.623 229.745,546.456 235.5,548.5C 237.515,549.924 239.848,550.59 242.5,550.5C 263.448,553.027 277.448,544.36 284.5,524.5C 285.954,521.282 286.621,517.782 286.5,514C 286.496,511.639 286.163,509.473 285.5,507.5C 284.337,499.838 281.503,492.838 277,486.5C 265.424,471.679 254.09,456.679 243,441.5C 234.911,429.662 227.578,417.329 221,404.5C 212.894,387.743 209.394,370.077 210.5,351.5C 211.863,347.368 212.863,343.035 213.5,338.5C 226.871,290.234 254.871,253.067 297.5,227C 326.772,212.078 357.772,206.578 390.5,210.5 Z"/>
  </g>
  <g>
    <path style="opacity: 1;" d="M 416.5,142.5 C 428.092,144.548 439.425,147.215 450.5,150.5C 438.829,148.704 427.495,146.037 416.5,142.5 Z"/>
  </g>
  <g>
    <path style="opacity: 1;" d="M 390.5,210.5 C 394.489,210.116 398.155,210.783 401.5,212.5C 397.64,212.192 393.974,211.525 390.5,210.5 Z"/>
  </g>
  <g>
    <path style="opacity: 1;" d="M 431.5,218.5 C 435.162,218.723 438.495,219.723 441.5,221.5C 437.838,221.277 434.505,220.277 431.5,218.5 Z"/>
  </g>
  <g>
    <path style="opacity: 1;" d="M 514.5,276.5 C 516.033,278.634 516.7,281.134 516.5,284C 516.494,286.033 516.161,287.866 515.5,289.5C 515.533,285.131 515.2,280.798 514.5,276.5 Z"/>
  </g>
  <g>
    <path style="opacity: 1;" d="M 586.5,276.5 C 587.167,281.167 587.833,285.833 588.5,290.5C 588.44,291.043 588.107,291.376 587.5,291.5C 586.506,286.544 586.173,281.544 586.5,276.5 Z"/>
  </g>
  <g>
    <path style="opacity: 1;" d="M 148.5,307.5 C 148.59,310.152 147.924,312.485 146.5,314.5C 146.41,311.848 147.076,309.515 148.5,307.5 Z"/>
  </g>
  <g>
    <path style="opacity: 1;" d="M 321.5,318.5 C 309.899,316.249 298.232,315.916 286.5,317.5C 291.58,315.985 296.914,315.318 302.5,315.5C 306.167,315.667 309.833,315.833 313.5,316C 316.457,316.279 319.123,317.113 321.5,318.5 Z"/>
  </g>
  <g>
    <path style="opacity: 1;" d="M 321.5,318.5 C 329.398,322.067 334.398,328.067 336.5,336.5C 336.387,341.518 336.053,346.518 335.5,351.5C 330.682,361.151 323.348,368.318 313.5,373C 319.904,376.735 325.737,381.235 331,386.5C 338.81,397.372 339.477,408.705 333,420.5C 325.239,428.631 315.739,433.464 304.5,435C 285.241,438.342 267.241,435.009 250.5,425C 243.91,420.247 238.577,414.413 234.5,407.5C 234.715,405.821 234.048,404.821 232.5,404.5C 227.629,392.542 226.296,380.209 228.5,367.5C 230.411,363.767 231.744,359.767 232.5,355.5C 233.795,351.577 235.628,347.91 238,344.5C 250.671,329.41 266.837,320.41 286.5,317.5C 298.232,315.916 309.899,316.249 321.5,318.5 Z"/>
  </g>
  <g>
    <path style="opacity: 1;" d="M 440.5,348.5 C 440.553,354.196 440.22,359.862 439.5,365.5C 436.127,373.044 430.793,378.877 423.5,383C 430.718,387.218 436.218,393.052 440,400.5C 444.681,415.975 439.847,427.475 425.5,435C 404.193,443.28 383.526,441.946 363.5,431C 355.036,425.38 349.036,417.88 345.5,408.5C 342.99,398.34 341.99,388.007 342.5,377.5C 345.539,361.299 354.206,349.132 368.5,341C 385.787,331.426 404.12,328.426 423.5,332C 432.341,334.343 438.008,339.843 440.5,348.5 Z"/>
  </g>
  <g>
    <path style="opacity: 1;" d="M 213.5,338.5 C 212.863,343.035 211.863,347.368 210.5,351.5C 210.485,347.44 210.985,343.44 212,339.5C 212.383,338.944 212.883,338.611 213.5,338.5 Z"/>
  </g>
  <g>
    <path style="opacity: 1;" d="M 141.5,335.5 C 141.638,340.414 140.972,345.081 139.5,349.5C 139.362,344.586 140.028,339.919 141.5,335.5 Z"/>
  </g>
  <g>
    <path style="opacity: 1;" d="M 716.5,340.5 C 699.121,340.188 681.788,340.854 664.5,342.5C 669.62,341.203 674.954,340.369 680.5,340C 692.674,339.174 704.674,339.34 716.5,340.5 Z"/>
  </g>
  <g>
    <path style="opacity: 1;" d="M 736.5,341.5 C 740.489,341.116 744.155,341.783 747.5,343.5C 743.64,343.192 739.974,342.525 736.5,341.5 Z"/>
  </g>
  <g>
    <path style="opacity: 1;" d="M 336.5,336.5 C 337.161,338.134 337.494,339.967 337.5,342C 337.579,345.451 336.913,348.618 335.5,351.5C 336.053,346.518 336.387,341.518 336.5,336.5 Z"/>
  </g>
  <g>
    <path style="opacity: 1;" d="M 232.5,355.5 C 231.744,359.767 230.411,363.767 228.5,367.5C 228.861,363.085 230.194,359.085 232.5,355.5 Z"/>
  </g>
  <g>
    <path style="opacity: 1;" d="M 440.5,348.5 C 441.163,350.641 441.497,352.975 441.5,355.5C 441.685,359.141 441.019,362.474 439.5,365.5C 440.22,359.862 440.553,354.196 440.5,348.5 Z"/>
  </g>
  <g>
    <path style="opacity: 1;" d="M 792.5,363.5 C 794.027,363.427 795.027,364.094 795.5,365.5C 793.973,365.573 792.973,364.906 792.5,363.5 Z"/>
  </g>
  <g>
    <path style="opacity: 1;" d="M 342.5,377.5 C 341.99,388.007 342.99,398.34 345.5,408.5C 343.583,405.196 342.416,401.529 342,397.5C 341.179,390.654 341.346,383.987 342.5,377.5 Z"/>
  </g>
  <g>
    <path style="opacity: 1;" d="M 121.5,396.5 C 126.375,397.085 131.042,398.085 135.5,399.5C 131.147,399.235 126.813,398.735 122.5,398C 121.944,397.617 121.611,397.117 121.5,396.5 Z"/>
  </g>
  <g>
    <path style="opacity: 1;" d="M 232.5,404.5 C 234.048,404.821 234.715,405.821 234.5,407.5C 233.599,406.71 232.932,405.71 232.5,404.5 Z"/>
  </g>
  <g>
    <path style="opacity: 1;" d="M 847.5,436.5 C 849.568,439.763 850.568,443.43 850.5,447.5C 849.055,444.063 848.055,440.397 847.5,436.5 Z"/>
  </g>
  <g>
    <path style="opacity: 1;" d="M 27.5,487.5 C 27.624,493.069 26.9573,498.402 25.5,503.5C 25.376,497.931 26.0427,492.598 27.5,487.5 Z"/>
  </g>
  <g>
    <path style="opacity: 1;" d="M 170.5,499.5 C 172.027,499.427 173.027,500.094 173.5,501.5C 171.973,501.573 170.973,500.906 170.5,499.5 Z"/>
  </g>
  <g>
    <path style="opacity: 1;" d="M 546.5,558.5 C 546.663,563.547 546.329,568.547 545.5,573.5C 543.88,577.642 541.214,581.142 537.5,584C 513.547,597.792 488.38,603.625 462,601.5C 449.534,625.598 431.368,644.098 407.5,657C 390.195,664.696 372.528,666.196 354.5,661.5C 352.485,660.076 350.152,659.41 347.5,659.5C 316.495,651.254 289.662,635.92 267,613.5C 255.693,596.2 257.86,580.7 273.5,567C 284.84,561.764 296.507,561.098 308.5,565C 328.106,572.869 348.106,579.535 368.5,585C 376.881,586.652 384.547,584.985 391.5,580C 394.833,577.667 398.167,575.333 401.5,573C 387.663,562.445 377.329,549.279 370.5,533.5C 370.802,530.941 370.468,528.607 369.5,526.5C 368.949,521.592 369.949,516.926 372.5,512.5C 373.906,512.027 374.573,511.027 374.5,509.5C 382.268,501.812 391.268,499.312 401.5,502C 406.633,504.735 411.633,507.735 416.5,511C 428.345,522.597 441.012,533.264 454.5,543C 458.167,544.667 461.833,546.333 465.5,548C 470.077,548.652 474.577,549.485 479,550.5C 496.222,548.617 512.888,546.284 529,543.5C 537.553,545.356 543.387,550.356 546.5,558.5 Z"/>
  </g>
  <g>
    <path style="opacity: 1;" d="M 476.5,508.5 C 478.898,508.259 480.898,508.926 482.5,510.5C 480.102,510.741 478.102,510.074 476.5,508.5 Z"/>
  </g>
  <g>
    <path style="opacity: 1;" d="M 374.5,509.5 C 374.573,511.027 373.906,512.027 372.5,512.5C 372.427,510.973 373.094,509.973 374.5,509.5 Z"/>
  </g>
  <g>
    <path style="opacity: 1;" d="M 285.5,507.5 C 286.163,509.473 286.496,511.639 286.5,514C 286.621,517.782 285.954,521.282 284.5,524.5C 285.134,518.855 285.468,513.189 285.5,507.5 Z"/>
  </g>
  <g>
    <path style="opacity: 1;" d="M 369.5,526.5 C 370.468,528.607 370.802,530.941 370.5,533.5C 369.784,531.444 369.117,529.277 368.5,527C 368.728,526.601 369.062,526.435 369.5,526.5 Z"/>
  </g>
  <g>
    <path style="opacity: 1;" d="M 926.5,542.5 C 926.303,549.026 925.636,555.359 924.5,561.5C 924.334,556.156 924.501,550.823 925,545.5C 925.232,544.263 925.732,543.263 926.5,542.5 Z"/>
  </g>
  <g>
    <path style="opacity: 1;" d="M 235.5,548.5 C 238.152,548.41 240.485,549.076 242.5,550.5C 239.848,550.59 237.515,549.924 235.5,548.5 Z"/>
  </g>
  <g>
    <path style="opacity: 1;" d="M 546.5,558.5 C 547.647,562.646 547.814,566.98 547,571.5C 546.722,572.416 546.222,573.082 545.5,573.5C 546.329,568.547 546.663,563.547 546.5,558.5 Z"/>
  </g>
  <g>
    <path style="opacity: 1;" d="M 25.5,549.5 C 27.3443,558.938 28.3443,568.605 28.5,578.5C 26.5237,569.076 25.5237,559.409 25.5,549.5 Z"/>
  </g>
  <g>
    <path style="opacity: 1;" d="M 923.5,574.5 C 923.149,578.684 922.482,582.684 921.5,586.5C 921.335,582.818 921.501,579.152 922,575.5C 922.383,574.944 922.883,574.611 923.5,574.5 Z"/>
  </g>
  <g>
    <path style="opacity: 1;" d="M 915.5,622.5 C 914.787,626.687 913.787,630.687 912.5,634.5C 912.564,630.78 913.064,627.114 914,623.5C 914.383,622.944 914.883,622.611 915.5,622.5 Z"/>
  </g>
  <g>
    <path style="opacity: 1;" d="M 912.5,636.5 C 910.102,647.439 907.102,658.106 903.5,668.5C 905.335,657.351 908.335,646.684 912.5,636.5 Z"/>
  </g>
  <g>
    <path style="opacity: 1;" d="M 347.5,659.5 C 350.152,659.41 352.485,660.076 354.5,661.5C 351.848,661.59 349.515,660.924 347.5,659.5 Z"/>
  </g>
  <g>
    <path style="opacity: 1;" d="M 246.5,727.5 C 256.012,728.52 265.346,729.853 274.5,731.5C 264.859,731.297 255.525,729.964 246.5,727.5 Z"/>
  </g>
  <g>
    <path style="opacity: 1;" d="M 310.5,734.5 C 330.625,736.508 350.625,738.508 370.5,740.5C 352.3,739.692 334.134,738.358 316,736.5C 313.705,736.453 311.871,735.787 310.5,734.5 Z"/>
  </g>
  <g>
    <path style="opacity: 1;" d="M 376.5,740.5 C 389.008,741.178 401.341,742.178 413.5,743.5C 402.816,743.411 392.15,742.911 381.5,742C 379.618,741.802 377.952,741.302 376.5,740.5 Z"/>
  </g>
  <g>
    <path style="opacity: 1;" d="M 420.5,743.5 C 428.681,743.776 436.681,744.443 444.5,745.5C 436.257,745.935 428.257,745.269 420.5,743.5 Z"/>
  </g>
  <g>
    <path style="opacity: 1;" d="M 453.5,745.5 C 462.002,745.913 470.335,746.58 478.5,747.5C 471.825,747.666 465.158,747.5 458.5,747C 456.618,746.802 454.952,746.302 453.5,745.5 Z"/>
  </g>
  <g>
    <path style="opacity: 1;" d="M 140.5,768.5 C 142.027,768.427 143.027,769.094 143.5,770.5C 141.973,770.573 140.973,769.906 140.5,768.5 Z"/>
  </g>
  <g>
    <path style="opacity: 1;" d="M 174.5,785.5 C 177.152,785.41 179.485,786.076 181.5,787.5C 178.848,787.59 176.515,786.924 174.5,785.5 Z"/>
  </g>
  <g>
    <path style="opacity: 1;" d="M 181.5,787.5 C 184.152,787.41 186.485,788.076 188.5,789.5C 185.848,789.59 183.515,788.924 181.5,787.5 Z"/>
  </g>
  <g>
    <path style="opacity: 1;" d="M 214.5,794.5 C 220.503,794.333 226.17,795.333 231.5,797.5C 225.626,796.951 219.959,795.951 214.5,794.5 Z"/>
  </g>
  <g>
    <path style="opacity: 1;" d="M 234.5,797.5 C 239.731,797.444 244.731,798.111 249.5,799.5C 244.269,799.556 239.269,798.889 234.5,797.5 Z"/>
  </g>
  <g>
    <path style="opacity: 1;" d="M 249.5,799.5 C 255.069,799.376 260.402,800.043 265.5,801.5C 259.949,801.473 254.616,800.806 249.5,799.5 Z"/>
  </g>
  <g transform="matrix(1, 0, 0, 1, -21.084842681884766, -23.641399383544922)">
    <path style="opacity: 1; fill: rgb(255, 248, 248);" d="M 416.5,142.5 C 427.495,146.037 438.829,148.704 450.5,150.5C 486.315,159.905 518.315,176.405 546.5,200C 563.081,215.584 575.248,234.084 583,255.5C 585.137,262.349 586.303,269.349 586.5,276.5C 586.173,281.544 586.506,286.544 587.5,291.5C 588.107,291.376 588.44,291.043 588.5,290.5C 625.218,275.101 663.552,267.768 703.5,268.5C 764.572,267.908 817.905,287.742 863.5,328C 892.602,356.69 911.435,391.19 920,431.5C 927.295,468.189 929.461,505.189 926.5,542.5C 925.732,543.263 925.232,544.263 925,545.5C 924.501,550.823 924.334,556.156 924.5,561.5C 924.414,565.857 924.08,570.19 923.5,574.5C 922.883,574.611 922.383,574.944 922,575.5C 921.501,579.152 921.335,582.818 921.5,586.5C 920.147,598.62 918.147,610.62 915.5,622.5C 914.883,622.611 914.383,622.944 914,623.5C 913.064,627.114 912.564,630.78 912.5,634.5C 912.5,635.167 912.5,635.833 912.5,636.5C 908.335,646.684 905.335,657.351 903.5,668.5C 891.475,714.084 868.142,752.584 833.5,784C 802.128,808.349 766.462,821.015 726.5,822C 678.855,824.839 631.189,825.173 583.5,823C 477.154,820.062 371.154,812.895 265.5,801.5C 260.402,800.043 255.069,799.376 249.5,799.5C 244.731,798.111 239.731,797.444 234.5,797.5C 233.5,797.5 232.5,797.5 231.5,797.5C 226.17,795.333 220.503,794.333 214.5,794.5C 205.537,793.753 196.87,792.086 188.5,789.5C 186.485,788.076 184.152,787.41 181.5,787.5C 179.485,786.076 177.152,785.41 174.5,785.5C 163.455,781.81 153.122,776.81 143.5,770.5C 143.027,769.094 142.027,768.427 140.5,768.5C 117.274,753.442 97.7739,734.442 82,711.5C 58.9588,679.745 42.6254,644.745 33,606.5C 30.7867,597.269 29.2867,587.936 28.5,578.5C 28.3443,568.605 27.3443,558.938 25.5,549.5C 24.1771,534.265 24.1771,518.931 25.5,503.5C 26.9573,498.402 27.624,493.069 27.5,487.5C 30.3048,458.392 42.3048,433.892 63.5,414C 80.3697,400.212 99.703,394.378 121.5,396.5C 121.611,397.117 121.944,397.617 122.5,398C 126.813,398.735 131.147,399.235 135.5,399.5C 137.937,399.756 140.271,400.423 142.5,401.5C 142.833,400.833 143.167,400.167 143.5,399.5C 139.132,382.904 137.799,366.237 139.5,349.5C 140.972,345.081 141.638,340.414 141.5,335.5C 142.293,328.179 143.96,321.179 146.5,314.5C 147.924,312.485 148.59,310.152 148.5,307.5C 169.29,242.541 209.624,193.708 269.5,161C 316.393,138.642 365.393,132.476 416.5,142.5 Z M 390.5,210.5 C 393.974,211.525 397.64,212.192 401.5,212.5C 411.566,214.183 421.566,216.183 431.5,218.5C 434.505,220.277 437.838,221.277 441.5,221.5C 459.571,228.203 476.571,237.036 492.5,248C 502.345,255.664 509.679,265.164 514.5,276.5C 515.2,280.798 515.533,285.131 515.5,289.5C 511.478,312.735 505.312,335.401 497,357.5C 485.885,385.729 474.219,413.729 462,441.5C 456.313,453.931 453.98,466.931 455,480.5C 457.619,493.44 464.786,502.773 476.5,508.5C 478.102,510.074 480.102,510.741 482.5,510.5C 496.414,514.26 508.581,510.927 519,500.5C 523.424,494.658 527.091,488.324 530,481.5C 541.222,448.719 556.889,418.385 577,390.5C 599.48,362.343 628.647,346.343 664.5,342.5C 681.788,340.854 699.121,340.188 716.5,340.5C 723.174,340.713 729.841,341.046 736.5,341.5C 739.974,342.525 743.64,343.192 747.5,343.5C 762.816,349.322 777.816,355.988 792.5,363.5C 792.973,364.906 793.973,365.573 795.5,365.5C 821.343,382.819 838.676,406.486 847.5,436.5C 848.055,440.397 849.055,444.063 850.5,447.5C 860.435,514.515 855.602,580.515 836,645.5C 828.267,676.148 813.434,702.648 791.5,725C 773.961,739.962 753.627,748.296 730.5,750C 704.367,751.837 678.2,752.67 652,752.5C 594.132,751.94 536.299,750.273 478.5,747.5C 470.335,746.58 462.002,745.913 453.5,745.5C 450.5,745.5 447.5,745.5 444.5,745.5C 436.681,744.443 428.681,743.776 420.5,743.5C 418.167,743.5 415.833,743.5 413.5,743.5C 401.341,742.178 389.008,741.178 376.5,740.5C 374.5,740.5 372.5,740.5 370.5,740.5C 350.625,738.508 330.625,736.508 310.5,734.5C 298.512,733.353 286.512,732.353 274.5,731.5C 265.346,729.853 256.012,728.52 246.5,727.5C 226.967,725.694 207.967,721.527 189.5,715C 174.272,706.781 161.105,695.948 150,682.5C 104.942,626.95 87.9419,563.617 99,492.5C 100.617,484.308 103.784,476.808 108.5,470C 110.366,469.015 112.366,468.515 114.5,468.5C 125.294,470.729 135.294,474.896 144.5,481C 153.324,486.998 161.99,493.164 170.5,499.5C 170.973,500.906 171.973,501.573 173.5,501.5C 188.643,514.469 203.976,527.302 219.5,540C 224.412,543.623 229.745,546.456 235.5,548.5C 237.515,549.924 239.848,550.59 242.5,550.5C 263.448,553.027 277.448,544.36 284.5,524.5C 285.954,521.282 286.621,517.782 286.5,514C 286.496,511.639 286.163,509.473 285.5,507.5C 284.337,499.838 281.503,492.838 277,486.5C 265.424,471.679 254.09,456.679 243,441.5C 234.911,429.662 227.578,417.329 221,404.5C 212.894,387.743 209.394,370.077 210.5,351.5C 211.863,347.368 212.863,343.035 213.5,338.5C 226.871,290.234 254.871,253.067 297.5,227C 326.772,212.078 357.772,206.578 390.5,210.5 Z"/>
  </g>
  <g transform="matrix(1, 0, 0, 1, -21.084842681884766, -23.641399383544922)">
    <path style="opacity: 1; fill: rgb(255, 248, 248);" d="M 416.5,142.5 C 428.092,144.548 439.425,147.215 450.5,150.5C 438.829,148.704 427.495,146.037 416.5,142.5 Z"/>
  </g>
  <g transform="matrix(1, 0, 0, 1, -21.084842681884766, -23.641399383544922)">
    <path style="opacity: 1; fill: rgb(255, 248, 248);" d="M 390.5,210.5 C 394.489,210.116 398.155,210.783 401.5,212.5C 397.64,212.192 393.974,211.525 390.5,210.5 Z"/>
  </g>
  <g transform="matrix(1, 0, 0, 1, -21.084842681884766, -23.641399383544922)">
    <path style="opacity: 1; fill: rgb(255, 248, 248);" d="M 431.5,218.5 C 435.162,218.723 438.495,219.723 441.5,221.5C 437.838,221.277 434.505,220.277 431.5,218.5 Z"/>
  </g>
  <g transform="matrix(1, 0, 0, 1, -21.084842681884766, -23.641399383544922)">
    <path style="opacity: 1; fill: rgb(255, 248, 248);" d="M 514.5,276.5 C 516.033,278.634 516.7,281.134 516.5,284C 516.494,286.033 516.161,287.866 515.5,289.5C 515.533,285.131 515.2,280.798 514.5,276.5 Z"/>
  </g>
  <g transform="matrix(1, 0, 0, 1, -21.084842681884766, -23.641399383544922)">
    <path style="opacity: 1; fill: rgb(255, 248, 248);" d="M 586.5,276.5 C 587.167,281.167 587.833,285.833 588.5,290.5C 588.44,291.043 588.107,291.376 587.5,291.5C 586.506,286.544 586.173,281.544 586.5,276.5 Z"/>
  </g>
  <g transform="matrix(1, 0, 0, 1, -21.084842681884766, -23.641399383544922)">
    <path style="opacity: 1; fill: rgb(255, 248, 248);" d="M 148.5,307.5 C 148.59,310.152 147.924,312.485 146.5,314.5C 146.41,311.848 147.076,309.515 148.5,307.5 Z"/>
  </g>
  <g transform="matrix(1, 0, 0, 1, -21.084842681884766, -23.641399383544922)">
    <path style="opacity: 1; fill: rgb(255, 248, 248);" d="M 321.5,318.5 C 309.899,316.249 298.232,315.916 286.5,317.5C 291.58,315.985 296.914,315.318 302.5,315.5C 306.167,315.667 309.833,315.833 313.5,316C 316.457,316.279 319.123,317.113 321.5,318.5 Z"/>
  </g>
  <g transform="matrix(1, 0, 0, 1, -21.084842681884766, -23.641399383544922)">
    <path style="opacity: 1; fill: rgb(255, 248, 248);" d="M 321.5,318.5 C 329.398,322.067 334.398,328.067 336.5,336.5C 336.387,341.518 336.053,346.518 335.5,351.5C 330.682,361.151 323.348,368.318 313.5,373C 319.904,376.735 325.737,381.235 331,386.5C 338.81,397.372 339.477,408.705 333,420.5C 325.239,428.631 315.739,433.464 304.5,435C 285.241,438.342 267.241,435.009 250.5,425C 243.91,420.247 238.577,414.413 234.5,407.5C 234.715,405.821 234.048,404.821 232.5,404.5C 227.629,392.542 226.296,380.209 228.5,367.5C 230.411,363.767 231.744,359.767 232.5,355.5C 233.795,351.577 235.628,347.91 238,344.5C 250.671,329.41 266.837,320.41 286.5,317.5C 298.232,315.916 309.899,316.249 321.5,318.5 Z"/>
  </g>
  <g transform="matrix(1, 0, 0, 1, -21.084842681884766, -23.641399383544922)">
    <path style="opacity: 1; fill: rgb(255, 248, 248);" d="M 440.5,348.5 C 440.553,354.196 440.22,359.862 439.5,365.5C 436.127,373.044 430.793,378.877 423.5,383C 430.718,387.218 436.218,393.052 440,400.5C 444.681,415.975 439.847,427.475 425.5,435C 404.193,443.28 383.526,441.946 363.5,431C 355.036,425.38 349.036,417.88 345.5,408.5C 342.99,398.34 341.99,388.007 342.5,377.5C 345.539,361.299 354.206,349.132 368.5,341C 385.787,331.426 404.12,328.426 423.5,332C 432.341,334.343 438.008,339.843 440.5,348.5 Z"/>
  </g>
  <g transform="matrix(1, 0, 0, 1, -21.084842681884766, -23.641399383544922)">
    <path style="opacity: 1; fill: rgb(255, 248, 248);" d="M 213.5,338.5 C 212.863,343.035 211.863,347.368 210.5,351.5C 210.485,347.44 210.985,343.44 212,339.5C 212.383,338.944 212.883,338.611 213.5,338.5 Z"/>
  </g>
  <g transform="matrix(1, 0, 0, 1, -21.084842681884766, -23.641399383544922)">
    <path style="opacity: 1; fill: rgb(255, 248, 248);" d="M 141.5,335.5 C 141.638,340.414 140.972,345.081 139.5,349.5C 139.362,344.586 140.028,339.919 141.5,335.5 Z"/>
  </g>
  <g transform="matrix(1, 0, 0, 1, -21.084842681884766, -23.641399383544922)">
    <path style="opacity: 1; fill: rgb(255, 248, 248);" d="M 716.5,340.5 C 699.121,340.188 681.788,340.854 664.5,342.5C 669.62,341.203 674.954,340.369 680.5,340C 692.674,339.174 704.674,339.34 716.5,340.5 Z"/>
  </g>
  <g transform="matrix(1, 0, 0, 1, -21.084842681884766, -23.641399383544922)">
    <path style="opacity: 1; fill: rgb(255, 248, 248);" d="M 736.5,341.5 C 740.489,341.116 744.155,341.783 747.5,343.5C 743.64,343.192 739.974,342.525 736.5,341.5 Z"/>
  </g>
  <g transform="matrix(1, 0, 0, 1, -21.084842681884766, -23.641399383544922)">
    <path style="opacity: 1; fill: rgb(255, 248, 248);" d="M 336.5,336.5 C 337.161,338.134 337.494,339.967 337.5,342C 337.579,345.451 336.913,348.618 335.5,351.5C 336.053,346.518 336.387,341.518 336.5,336.5 Z"/>
  </g>
  <g transform="matrix(1, 0, 0, 1, -21.084842681884766, -23.641399383544922)">
    <path style="opacity: 1; fill: rgb(255, 248, 248);" d="M 232.5,355.5 C 231.744,359.767 230.411,363.767 228.5,367.5C 228.861,363.085 230.194,359.085 232.5,355.5 Z"/>
  </g>
  <g transform="matrix(1, 0, 0, 1, -21.084842681884766, -23.641399383544922)">
    <path style="opacity: 1; fill: rgb(255, 248, 248);" d="M 440.5,348.5 C 441.163,350.641 441.497,352.975 441.5,355.5C 441.685,359.141 441.019,362.474 439.5,365.5C 440.22,359.862 440.553,354.196 440.5,348.5 Z"/>
  </g>
  <g transform="matrix(1, 0, 0, 1, -21.084842681884766, -23.641399383544922)">
    <path style="opacity: 1; fill: rgb(255, 248, 248);" d="M 792.5,363.5 C 794.027,363.427 795.027,364.094 795.5,365.5C 793.973,365.573 792.973,364.906 792.5,363.5 Z"/>
  </g>
  <g transform="matrix(1, 0, 0, 1, -21.084842681884766, -23.641399383544922)">
    <path style="opacity: 1; fill: rgb(255, 248, 248);" d="M 342.5,377.5 C 341.99,388.007 342.99,398.34 345.5,408.5C 343.583,405.196 342.416,401.529 342,397.5C 341.179,390.654 341.346,383.987 342.5,377.5 Z"/>
  </g>
  <g transform="matrix(1, 0, 0, 1, -21.084842681884766, -23.641399383544922)">
    <path style="opacity: 1; fill: rgb(255, 248, 248);" d="M 121.5,396.5 C 126.375,397.085 131.042,398.085 135.5,399.5C 131.147,399.235 126.813,398.735 122.5,398C 121.944,397.617 121.611,397.117 121.5,396.5 Z"/>
  </g>
  <g transform="matrix(1, 0, 0, 1, -21.084842681884766, -23.641399383544922)">
    <path style="opacity: 1; fill: rgb(255, 248, 248);" d="M 232.5,404.5 C 234.048,404.821 234.715,405.821 234.5,407.5C 233.599,406.71 232.932,405.71 232.5,404.5 Z"/>
  </g>
  <g transform="matrix(1, 0, 0, 1, -21.084842681884766, -23.641399383544922)">
    <path style="opacity: 1; fill: rgb(255, 248, 248);" d="M 847.5,436.5 C 849.568,439.763 850.568,443.43 850.5,447.5C 849.055,444.063 848.055,440.397 847.5,436.5 Z"/>
  </g>
  <g transform="matrix(1, 0, 0, 1, -21.084842681884766, -23.641399383544922)">
    <path style="opacity: 1; fill: rgb(255, 248, 248);" d="M 27.5,487.5 C 27.624,493.069 26.9573,498.402 25.5,503.5C 25.376,497.931 26.0427,492.598 27.5,487.5 Z"/>
  </g>
  <g transform="matrix(1, 0, 0, 1, -21.084842681884766, -23.641399383544922)">
    <path style="opacity: 1; fill: rgb(255, 248, 248);" d="M 170.5,499.5 C 172.027,499.427 173.027,500.094 173.5,501.5C 171.973,501.573 170.973,500.906 170.5,499.5 Z"/>
  </g>
  <g transform="matrix(1, 0, 0, 1, -21.084842681884766, -23.641399383544922)">
    <path style="opacity: 1; fill: rgb(255, 248, 248);" d="M 546.5,558.5 C 546.663,563.547 546.329,568.547 545.5,573.5C 543.88,577.642 541.214,581.142 537.5,584C 513.547,597.792 488.38,603.625 462,601.5C 449.534,625.598 431.368,644.098 407.5,657C 390.195,664.696 372.528,666.196 354.5,661.5C 352.485,660.076 350.152,659.41 347.5,659.5C 316.495,651.254 289.662,635.92 267,613.5C 255.693,596.2 257.86,580.7 273.5,567C 284.84,561.764 296.507,561.098 308.5,565C 328.106,572.869 348.106,579.535 368.5,585C 376.881,586.652 384.547,584.985 391.5,580C 394.833,577.667 398.167,575.333 401.5,573C 387.663,562.445 377.329,549.279 370.5,533.5C 370.802,530.941 370.468,528.607 369.5,526.5C 368.949,521.592 369.949,516.926 372.5,512.5C 373.906,512.027 374.573,511.027 374.5,509.5C 382.268,501.812 391.268,499.312 401.5,502C 406.633,504.735 411.633,507.735 416.5,511C 428.345,522.597 441.012,533.264 454.5,543C 458.167,544.667 461.833,546.333 465.5,548C 470.077,548.652 474.577,549.485 479,550.5C 496.222,548.617 512.888,546.284 529,543.5C 537.553,545.356 543.387,550.356 546.5,558.5 Z"/>
  </g>
  <g transform="matrix(1, 0, 0, 1, -21.084842681884766, -23.641399383544922)">
    <path style="opacity: 1; fill: rgb(255, 248, 248);" d="M 476.5,508.5 C 478.898,508.259 480.898,508.926 482.5,510.5C 480.102,510.741 478.102,510.074 476.5,508.5 Z"/>
  </g>
  <g transform="matrix(1, 0, 0, 1, -21.084842681884766, -23.641399383544922)">
    <path style="opacity: 1; fill: rgb(255, 248, 248);" d="M 374.5,509.5 C 374.573,511.027 373.906,512.027 372.5,512.5C 372.427,510.973 373.094,509.973 374.5,509.5 Z"/>
  </g>
  <g transform="matrix(1, 0, 0, 1, -21.084842681884766, -23.641399383544922)">
    <path style="opacity: 1; fill: rgb(255, 248, 248);" d="M 285.5,507.5 C 286.163,509.473 286.496,511.639 286.5,514C 286.621,517.782 285.954,521.282 284.5,524.5C 285.134,518.855 285.468,513.189 285.5,507.5 Z"/>
  </g>
  <g transform="matrix(1, 0, 0, 1, -21.084842681884766, -23.641399383544922)">
    <path style="opacity: 1; fill: rgb(255, 248, 248);" d="M 369.5,526.5 C 370.468,528.607 370.802,530.941 370.5,533.5C 369.784,531.444 369.117,529.277 368.5,527C 368.728,526.601 369.062,526.435 369.5,526.5 Z"/>
  </g>
  <g transform="matrix(1, 0, 0, 1, -21.084842681884766, -23.641399383544922)">
    <path style="opacity: 1; fill: rgb(255, 248, 248);" d="M 926.5,542.5 C 926.303,549.026 925.636,555.359 924.5,561.5C 924.334,556.156 924.501,550.823 925,545.5C 925.232,544.263 925.732,543.263 926.5,542.5 Z"/>
  </g>
  <g transform="matrix(1, 0, 0, 1, -21.084842681884766, -23.641399383544922)">
    <path style="opacity: 1; fill: rgb(255, 248, 248);" d="M 235.5,548.5 C 238.152,548.41 240.485,549.076 242.5,550.5C 239.848,550.59 237.515,549.924 235.5,548.5 Z"/>
  </g>
  <g transform="matrix(1, 0, 0, 1, -21.084842681884766, -23.641399383544922)">
    <path style="opacity: 1; fill: rgb(255, 248, 248);" d="M 546.5,558.5 C 547.647,562.646 547.814,566.98 547,571.5C 546.722,572.416 546.222,573.082 545.5,573.5C 546.329,568.547 546.663,563.547 546.5,558.5 Z"/>
  </g>
  <g transform="matrix(1, 0, 0, 1, -21.084842681884766, -23.641399383544922)">
    <path style="opacity: 1; fill: rgb(255, 248, 248);" d="M 25.5,549.5 C 27.3443,558.938 28.3443,568.605 28.5,578.5C 26.5237,569.076 25.5237,559.409 25.5,549.5 Z"/>
  </g>
  <g transform="matrix(1, 0, 0, 1, -21.084842681884766, -23.641399383544922)">
    <path style="opacity: 1; fill: rgb(255, 248, 248);" d="M 923.5,574.5 C 923.149,578.684 922.482,582.684 921.5,586.5C 921.335,582.818 921.501,579.152 922,575.5C 922.383,574.944 922.883,574.611 923.5,574.5 Z"/>
  </g>
  <g transform="matrix(1, 0, 0, 1, -21.084842681884766, -23.641399383544922)">
    <path style="opacity: 1; fill: rgb(255, 248, 248);" d="M 915.5,622.5 C 914.787,626.687 913.787,630.687 912.5,634.5C 912.564,630.78 913.064,627.114 914,623.5C 914.383,622.944 914.883,622.611 915.5,622.5 Z"/>
  </g>
  <g transform="matrix(1, 0, 0, 1, -21.084842681884766, -23.641399383544922)">
    <path style="opacity: 1; fill: rgb(255, 248, 248);" d="M 912.5,636.5 C 910.102,647.439 907.102,658.106 903.5,668.5C 905.335,657.351 908.335,646.684 912.5,636.5 Z"/>
  </g>
  <g transform="matrix(1, 0, 0, 1, -21.084842681884766, -23.641399383544922)">
    <path style="opacity: 1; fill: rgb(255, 248, 248);" d="M 347.5,659.5 C 350.152,659.41 352.485,660.076 354.5,661.5C 351.848,661.59 349.515,660.924 347.5,659.5 Z"/>
  </g>
  <g transform="matrix(1, 0, 0, 1, -21.084842681884766, -23.641399383544922)">
    <path style="opacity: 1; fill: rgb(255, 248, 248);" d="M 246.5,727.5 C 256.012,728.52 265.346,729.853 274.5,731.5C 264.859,731.297 255.525,729.964 246.5,727.5 Z"/>
  </g>
  <g transform="matrix(1, 0, 0, 1, -21.084842681884766, -23.641399383544922)">
    <path style="opacity: 1; fill: rgb(255, 248, 248);" d="M 310.5,734.5 C 330.625,736.508 350.625,738.508 370.5,740.5C 352.3,739.692 334.134,738.358 316,736.5C 313.705,736.453 311.871,735.787 310.5,734.5 Z"/>
  </g>
  <g transform="matrix(1, 0, 0, 1, -21.084842681884766, -23.641399383544922)">
    <path style="opacity: 1; fill: rgb(255, 248, 248);" d="M 376.5,740.5 C 389.008,741.178 401.341,742.178 413.5,743.5C 402.816,743.411 392.15,742.911 381.5,742C 379.618,741.802 377.952,741.302 376.5,740.5 Z"/>
  </g>
  <g transform="matrix(1, 0, 0, 1, -21.084842681884766, -23.641399383544922)">
    <path style="opacity: 1; fill: rgb(255, 248, 248);" d="M 420.5,743.5 C 428.681,743.776 436.681,744.443 444.5,745.5C 436.257,745.935 428.257,745.269 420.5,743.5 Z"/>
  </g>
  <g transform="matrix(1, 0, 0, 1, -21.084842681884766, -23.641399383544922)">
    <path style="opacity: 1; fill: rgb(255, 248, 248);" d="M 453.5,745.5 C 462.002,745.913 470.335,746.58 478.5,747.5C 471.825,747.666 465.158,747.5 458.5,747C 456.618,746.802 454.952,746.302 453.5,745.5 Z"/>
  </g>
  <g transform="matrix(1, 0, 0, 1, -21.084842681884766, -23.641399383544922)">
    <path style="opacity: 1; fill: rgb(255, 248, 248);" d="M 140.5,768.5 C 142.027,768.427 143.027,769.094 143.5,770.5C 141.973,770.573 140.973,769.906 140.5,768.5 Z"/>
  </g>
  <g transform="matrix(1, 0, 0, 1, -21.084842681884766, -23.641399383544922)">
    <path style="opacity: 1; fill: rgb(255, 248, 248);" d="M 174.5,785.5 C 177.152,785.41 179.485,786.076 181.5,787.5C 178.848,787.59 176.515,786.924 174.5,785.5 Z"/>
  </g>
  <g transform="matrix(1, 0, 0, 1, -21.084842681884766, -23.641399383544922)">
    <path style="opacity: 1; fill: rgb(255, 248, 248);" d="M 181.5,787.5 C 184.152,787.41 186.485,788.076 188.5,789.5C 185.848,789.59 183.515,788.924 181.5,787.5 Z"/>
  </g>
  <g transform="matrix(1, 0, 0, 1, -21.084842681884766, -23.641399383544922)">
    <path style="opacity: 1; fill: rgb(255, 248, 248);" d="M 214.5,794.5 C 220.503,794.333 226.17,795.333 231.5,797.5C 225.626,796.951 219.959,795.951 214.5,794.5 Z"/>
  </g>
  <g transform="matrix(1, 0, 0, 1, -21.084842681884766, -23.641399383544922)">
    <path style="opacity: 1; fill: rgb(255, 248, 248);" d="M 234.5,797.5 C 239.731,797.444 244.731,798.111 249.5,799.5C 244.269,799.556 239.269,798.889 234.5,797.5 Z"/>
  </g>
  <g transform="matrix(1, 0, 0, 1, -21.084842681884766, -23.641399383544922)">
    <path style="opacity: 1; fill: rgb(255, 248, 248);" d="M 249.5,799.5 C 255.069,799.376 260.402,800.043 265.5,801.5C 259.949,801.473 254.616,800.806 249.5,799.5 Z"/>
  </g>
</svg>