<?xml version="1.0" encoding="utf-8"?>
<svg viewBox="71.7355 299.8193 84.6152 64.3149" width="84.615px" height="64.315px" xmlns="http://www.w3.org/2000/svg">
  <g transform="matrix(0.09367600083351135, 0, 0, 0.09367600083351135, 69.43973541259766, 286.9065246582031)" style="">
    <path style="opacity: 1; fill: rgb(255, 248, 248);" d="M 416.5 142.5 C 427.495 146.037 438.829 148.704 450.5 150.5 C 486.315 159.905 518.315 176.405 546.5 200 C 563.081 215.584 575.248 234.084 583 255.5 C 585.137 262.349 586.303 269.349 586.5 276.5 C 586.173 281.544 586.506 286.544 587.5 291.5 C 588.107 291.376 588.44 291.043 588.5 290.5 C 625.218 275.101 663.552 267.768 703.5 268.5 C 764.572 267.908 817.905 287.742 863.5 328 C 892.602 356.69 911.435 391.19 920 431.5 C 927.295 468.189 929.461 505.189 926.5 542.5 C 925.732 543.263 925.232 544.263 925 545.5 C 924.501 550.823 924.334 556.156 924.5 561.5 C 924.414 565.857 924.08 570.19 923.5 574.5 C 922.883 574.611 922.383 574.944 922 575.5 C 921.501 579.152 921.335 582.818 921.5 586.5 C 920.147 598.62 918.147 610.62 915.5 622.5 C 914.883 622.611 914.383 622.944 914 623.5 C 913.064 627.114 912.564 630.78 912.5 634.5 C 912.5 635.167 912.5 635.833 912.5 636.5 C 908.335 646.684 905.335 657.351 903.5 668.5 C 891.475 714.084 868.142 752.584 833.5 784 C 802.128 808.349 766.462 821.015 726.5 822 C 678.855 824.839 631.189 825.173 583.5 823 C 477.154 820.062 371.154 812.895 265.5 801.5 C 260.402 800.043 255.069 799.376 249.5 799.5 C 244.731 798.111 239.731 797.444 234.5 797.5 C 233.5 797.5 232.5 797.5 231.5 797.5 C 226.17 795.333 220.503 794.333 214.5 794.5 C 205.537 793.753 196.87 792.086 188.5 789.5 C 186.485 788.076 184.152 787.41 181.5 787.5 C 179.485 786.076 177.152 785.41 174.5 785.5 C 163.455 781.81 153.122 776.81 143.5 770.5 C 143.027 769.094 142.027 768.427 140.5 768.5 C 117.274 753.442 97.7739 734.442 82 711.5 C 58.9588 679.745 42.6254 644.745 33 606.5 C 30.7867 597.269 29.2867 587.936 28.5 578.5 C 28.3443 568.605 27.3443 558.938 25.5 549.5 C 24.1771 534.265 24.1771 518.931 25.5 503.5 C 26.9573 498.402 27.624 493.069 27.5 487.5 C 30.3048 458.392 42.3048 433.892 63.5 414 C 80.3697 400.212 99.703 394.378 121.5 396.5 C 121.611 397.117 121.944 397.617 122.5 398 C 126.813 398.735 131.147 399.235 135.5 399.5 C 137.937 399.756 140.271 400.423 142.5 401.5 C 142.833 400.833 143.167 400.167 143.5 399.5 C 139.132 382.904 137.799 366.237 139.5 349.5 C 140.972 345.081 141.638 340.414 141.5 335.5 C 142.293 328.179 143.96 321.179 146.5 314.5 C 147.924 312.485 148.59 310.152 148.5 307.5 C 169.29 242.541 209.624 193.708 269.5 161 C 316.393 138.642 365.393 132.476 416.5 142.5 Z"/>
    <path style="opacity: 1; fill: rgb(255, 248, 248);" d="M 390.5 210.5 C 393.974 211.525 397.64 212.192 401.5 212.5 C 411.566 214.183 421.566 216.183 431.5 218.5 C 434.505 220.277 437.838 221.277 441.5 221.5 C 459.571 228.203 476.571 237.036 492.5 248 C 502.345 255.664 509.679 265.164 514.5 276.5 C 515.2 280.798 515.533 285.131 515.5 289.5 C 511.478 312.735 505.312 335.401 497 357.5 C 485.885 385.729 474.219 413.729 462 441.5 C 456.313 453.931 453.98 466.931 455 480.5 C 457.619 493.44 464.786 502.773 476.5 508.5 C 478.102 510.074 480.102 510.741 482.5 510.5 C 496.414 514.26 508.581 510.927 519 500.5 C 523.424 494.658 527.091 488.324 530 481.5 C 541.222 448.719 556.889 418.385 577 390.5 C 599.48 362.343 628.647 346.343 664.5 342.5 C 681.788 340.854 699.121 340.188 716.5 340.5 C 723.174 340.713 729.841 341.046 736.5 341.5 C 739.974 342.525 743.64 343.192 747.5 343.5 C 762.816 349.322 777.816 355.988 792.5 363.5 C 792.973 364.906 793.973 365.573 795.5 365.5 C 821.343 382.819 838.676 406.486 847.5 436.5 C 848.055 440.397 849.055 444.063 850.5 447.5 C 860.435 514.515 855.602 580.515 836 645.5 C 828.267 676.148 813.434 702.648 791.5 725 C 773.961 739.962 753.627 748.296 730.5 750 C 704.367 751.837 678.2 752.67 652 752.5 C 594.132 751.94 536.299 750.273 478.5 747.5 C 470.335 746.58 462.002 745.913 453.5 745.5 C 450.5 745.5 447.5 745.5 444.5 745.5 C 436.681 744.443 428.681 743.776 420.5 743.5 C 418.167 743.5 415.833 743.5 413.5 743.5 C 401.341 742.178 389.008 741.178 376.5 740.5 C 374.5 740.5 372.5 740.5 370.5 740.5 C 350.625 738.508 330.625 736.508 310.5 734.5 C 298.512 733.353 286.512 732.353 274.5 731.5 C 265.346 729.853 256.012 728.52 246.5 727.5 C 226.967 725.694 207.967 721.527 189.5 715 C 174.272 706.781 161.105 695.948 150 682.5 C 104.942 626.95 87.9419 563.617 99 492.5 C 100.617 484.308 103.784 476.808 108.5 470 C 110.366 469.015 112.366 468.515 114.5 468.5 C 125.294 470.729 135.294 474.896 144.5 481 C 153.324 486.998 161.99 493.164 170.5 499.5 C 170.973 500.906 171.973 501.573 173.5 501.5 C 188.643 514.469 203.976 527.302 219.5 540 C 224.412 543.623 229.745 546.456 235.5 548.5 C 237.515 549.924 239.848 550.59 242.5 550.5 C 263.448 553.027 277.448 544.36 284.5 524.5 C 285.954 521.282 286.621 517.782 286.5 514 C 286.496 511.639 286.163 509.473 285.5 507.5 C 284.337 499.838 281.503 492.838 277 486.5 C 265.424 471.679 254.09 456.679 243 441.5 C 234.911 429.662 227.578 417.329 221 404.5 C 212.894 387.743 209.394 370.077 210.5 351.5 C 211.863 347.368 212.863 343.035 213.5 338.5 C 226.871 290.234 254.871 253.067 297.5 227 C 326.772 212.078 357.772 206.578 390.5 210.5 Z"/>
  </g>
</svg>