<?xml version="1.0" encoding="UTF-8" standalone="no"?>
<!-- Created for CloudyAI) -->

<svg
   width="210mm"
   height="297mm"
   viewBox="0 0 210 297"
   version="1.1"
   id="svg1"
   xmlns="http://www.w3.org/2000/svg"
   xmlns:svg="http://www.w3.org/2000/svg">
  <defs
     id="defs1" />
  <g
     id="layer1">
    <path
       style="fill:#ffffff;fill-opacity:1;stroke-width:0.373402"
       d="M 11.290224,29.441025 C 21.590459,30.670122 40.494846,29.160853 42.19315,28.880206 52.34485,27.202619 50.371902,-1.0656607 33.917739,10.763502 15.21758,24.207347 27.162135,18.457256 14.265067,14.044074 6.522489,11.343971 0.73779479,24.989476 11.290224,29.441025 Z"
       id="path26" />
    <path
       style="fill:#ffffff;fill-opacity:1;stroke-width:0.373402"
       d="M 23.266469,24.403873 C 16.281316,20.064424 9.7715219,2.6414301 23.098152,1.6458755 40.358917,0.35642465 29.494197,22.764525 29.494197,22.764525 Z"
       id="path27" />
    <path
       style="fill:#ffffff;fill-opacity:1;stroke-width:0.373402"
       d="M 11.290224,29.441025 C 21.590459,30.670122 40.494846,29.160853 42.19315,28.880206 52.34485,27.202619 50.371902,-1.0656607 33.917739,10.763502 15.21758,24.207347 27.162135,18.457256 14.265067,14.044074 6.522489,11.343971 0.73779479,24.989476 11.290224,29.441025 Z"
       id="path28" />
    <path
       style="fill:#ffffff;fill-opacity:1;stroke-width:0.373402"
       d="M 23.266469,24.403873 C 16.281316,20.064424 9.7715219,2.6414301 23.098152,1.6458755 40.358917,0.35642465 29.494197,22.764525 29.494197,22.764525 Z"
       id="path29" />
    <path
       style="fill:#000000;fill-opacity:1;stroke-width:0.331063"
       id="path31"
       d="m 21.586751,6.4123729 c -0.157973,-0.00232 -0.315751,0.00201 -0.473561,0.00983 -0.342551,0.013713 -0.675039,0.099027 -1.000923,0.2103431 -0.362072,0.1293525 -0.690876,0.3360106 -0.999886,0.5770573 -0.335465,0.2677306 -0.585184,0.6259334 -0.799978,1.0105389 -0.208497,0.3964094 -0.322596,0.8349675 -0.406128,1.280208 -0.07643,0.4135594 -0.06974,0.8307118 -0.01438,1.2458018 0.06784,0.431652 0.258407,0.807261 0.49424,1.152656 0.190303,0.268713 0.426532,0.487329 0.677583,0.683485 0.209947,0.157586 0.435949,0.285739 0.66725,0.400339 0.178081,0.08722 0.361687,0.159346 0.545862,0.229093 0.156436,0.05835 0.315315,0.108234 0.474967,0.154659 0.08962,0.02603 0.179864,0.04917 0.270276,0.07156 0.822896,0.203187 1.345035,-2.358602 0.522141,-2.561789 v 0 c -0.06265,-0.01541 -0.125203,-0.03122 -0.187263,-0.04933 -0.102427,-0.02917 -0.204135,-0.06147 -0.304619,-0.09793 -0.118599,-0.04483 -0.237362,-0.08965 -0.352236,-0.145266 -0.09366,-0.04444 -0.184563,-0.09538 -0.271384,-0.154432 -0.05542,-0.0399 -0.109535,-0.08248 -0.155149,-0.135807 -0.03795,-0.04407 -0.02326,-0.01093 -0.03029,0.01126 -0.01865,-0.07113 -0.01281,-0.197478 0.0019,-0.288084 0.02578,-0.1513775 0.05617,-0.3016334 0.111694,-0.4436726 0.04237,-0.083461 0.08529,-0.16939 0.150892,-0.2338233 0.100137,-0.08361 0.20603,-0.1554401 0.324684,-0.2035434 0.126935,-0.046242 0.254467,-0.08637 0.389357,-0.090581 0.121684,-0.00621 0.243225,-0.00931 0.365067,-0.00712 0.843348,0 0.843348,-2.6254605 0,-2.6254605 z" />
    <path
       style="fill:#000000;fill-opacity:1;stroke-width:0.331063"
       id="path31-4"
       d="m 26.319538,6.262662 c -0.157973,-0.00232 -0.315751,0.00201 -0.473561,0.00983 -0.342551,0.013713 -0.675039,0.099027 -1.000923,0.2103431 -0.362072,0.1293525 -0.690876,0.3360106 -0.999886,0.5770573 -0.335465,0.2677306 -0.585184,0.6259334 -0.799978,1.0105389 -0.208497,0.3964094 -0.322596,0.8349675 -0.406128,1.280208 -0.07643,0.4135594 -0.06974,0.8307117 -0.01438,1.2458017 0.06784,0.431652 0.258407,0.807261 0.49424,1.152656 0.190303,0.268713 0.426532,0.487329 0.677583,0.683485 0.209947,0.157586 0.435949,0.285739 0.66725,0.400339 0.178081,0.08722 0.361687,0.159346 0.545862,0.229093 0.156436,0.05835 0.315315,0.108234 0.474967,0.154659 0.08962,0.02603 0.179864,0.04917 0.270276,0.07156 0.822896,0.203187 1.345035,-2.358602 0.522141,-2.561789 v 0 c -0.06265,-0.01541 -0.125203,-0.03122 -0.187263,-0.04933 -0.102427,-0.02917 -0.204135,-0.06147 -0.304619,-0.09793 -0.118599,-0.04483 -0.237362,-0.08965 -0.352236,-0.145266 -0.09366,-0.04444 -0.184563,-0.09538 -0.271384,-0.154432 -0.05542,-0.0399 -0.109535,-0.08248 -0.155149,-0.135806 -0.03795,-0.04407 -0.02326,-0.01093 -0.03029,0.01126 -0.01865,-0.07113 -0.01281,-0.1974789 0.0019,-0.2880846 0.02578,-0.1513778 0.05617,-0.3016337 0.111694,-0.4436729 0.04237,-0.083461 0.08529,-0.16939 0.150892,-0.2338233 0.100137,-0.08361 0.20603,-0.1554401 0.324684,-0.2035434 0.126935,-0.046242 0.254467,-0.08637 0.389357,-0.090581 0.121684,-0.00621 0.243225,-0.00931 0.365067,-0.00712 0.843348,0 0.843348,-2.6254605 0,-2.6254605 z" />
    <path
       style="fill:#000000;fill-opacity:1;stroke-width:0.320936"
       id="path33"
       d="m 18.216185,18.390942 c 0.06011,0.10516 0.130449,0.20356 0.197058,0.304372 0.122238,0.181656 0.258046,0.352907 0.399574,0.518971 0.184158,0.210738 0.389073,0.400872 0.599745,0.583104 0.247994,0.214999 0.520336,0.395998 0.800718,0.562718 0.297254,0.173264 0.610576,0.314004 0.92725,0.445015 0.32313,0.131272 0.655118,0.237528 0.988366,0.337964 0.343199,0.10162 0.692695,0.177733 1.044622,0.239297 0.346359,0.05836 0.695925,0.08728 1.046597,0.09394 0.365505,0.0068 0.726859,-0.0446 1.083829,-0.119934 0.320808,-0.07322 0.634621,-0.173832 0.944688,-0.284673 0.285565,-0.105737 0.565561,-0.226574 0.842752,-0.353361 0.272699,-0.124632 0.536977,-0.266923 0.797759,-0.415623 0.244961,-0.140326 0.486095,-0.287175 0.723754,-0.440084 0.223988,-0.14164 0.442553,-0.291994 0.660526,-0.443093 0.192685,-0.130942 0.382616,-0.266058 0.573513,-0.399707 0.178539,-0.127462 0.355421,-0.257288 0.530993,-0.389003 0.146124,-0.108488 0.292582,-0.21641 0.437124,-0.327126 0.11632,-0.0843 0.229596,-0.172786 0.342222,-0.262143 0.09407,-0.07535 0.184513,-0.155161 0.271806,-0.238612 0.210831,-0.180062 0.311395,-0.421193 0.404837,-0.678167 0.107037,-0.52826 -0.03852,-0.893247 -0.386781,-1.267591 -0.122959,-0.113757 -0.267136,-0.196201 -0.418764,-0.261721 -0.105233,-0.08117 0.196451,0.116791 0.203906,0.122317 0.05292,0.04825 -0.02387,-0.02352 -0.02898,-0.02855 -0.007,-0.0063 -0.03181,-0.03261 -0.05778,-0.06345 -0.03806,-0.04727 -0.07086,-0.09891 -0.104957,-0.149249 -0.06303,-0.09548 -0.122856,-0.193196 -0.181393,-0.291636 -0.06558,-0.106881 -0.126504,-0.216688 -0.182702,-0.329023 -0.07289,-0.149135 -0.150925,-0.295584 -0.233579,-0.439255 -0.0652,-0.111731 -0.13465,-0.220803 -0.206593,-0.328078 -0.09524,-0.14112 -0.20925,-0.265223 -0.336668,-0.376105 -0.289876,-0.222202 -0.795189,-0.434626 -1.150296,-0.230047 -0.306613,0.176637 -0.547769,0.46159 -0.764225,0.745753 -0.07327,0.09619 -0.05087,0.238459 -0.07632,0.357688 -0.01912,0.259812 0.04962,0.497531 0.145111,0.731527 0.04707,0.105775 0.09799,0.209704 0.149763,0.313129 0.06333,0.122107 0.130338,0.242201 0.199069,0.361188 0.07269,0.124273 0.147651,0.247128 0.225108,0.368334 0.08388,0.133441 0.174543,0.262229 0.268218,0.388571 0.0993,0.136481 0.208223,0.265237 0.320908,0.390176 0.113831,0.124365 0.234615,0.241705 0.357793,0.356227 0.112414,0.104904 0.230148,0.203499 0.347401,0.302598 0.108585,0.08834 0.216765,0.17718 0.325864,0.264858 0.105787,0.0868 0.21946,0.162573 0.328984,0.244077 0.09789,0.07345 0.197653,0.144284 0.298646,0.213168 0.09684,0.06494 0.194842,0.12798 0.294593,0.188114 0.05902,0.0404 0.118227,0.08046 0.177993,0.119665 0.07094,0.04533 0.142736,0.08923 0.214439,0.13328 0.05391,0.03389 0.109641,0.06463 0.165375,0.09522 0.747138,0.409352 1.876678,-1.756781 1.12954,-2.16613 v 0 c -0.02177,-0.01191 -0.04251,-0.02218 -0.06311,-0.03585 -0.05496,-0.03375 -0.109963,-0.06746 -0.164583,-0.101799 -0.08418,-0.05142 -0.161594,-0.114334 -0.247475,-0.163073 -0.06316,-0.03777 -0.124726,-0.0782 -0.186153,-0.118878 -0.07751,-0.05136 -0.152011,-0.107518 -0.226944,-0.162688 -0.08123,-0.05906 -0.163954,-0.115856 -0.242945,-0.178073 -0.09363,-0.07522 -0.186342,-0.151608 -0.279875,-0.226953 -0.08998,-0.07604 -0.180794,-0.151113 -0.267077,-0.231596 -0.0734,-0.06698 -0.144304,-0.136902 -0.212237,-0.209697 -0.06146,-0.06458 -0.116603,-0.135493 -0.16972,-0.207316 -0.06059,-0.07884 -0.115676,-0.162188 -0.169285,-0.246102 -0.05778,-0.08839 -0.111137,-0.179758 -0.165329,-0.270489 -0.04398,-0.07548 -0.08607,-0.152096 -0.127705,-0.228945 -0.02912,-0.05804 -0.0559,-0.117378 -0.08529,-0.175243 -0.0019,-0.0038 0.003,0.008 0.0045,0.01204 0.0056,0.01671 0.07718,0.339413 0.04348,0.429903 -0.02472,0.109692 -0.005,0.241562 -0.07415,0.329071 -0.216418,0.274101 -0.453679,0.551137 -0.755062,0.721151 -0.32419,0.182883 -0.806717,0.0071 -1.075415,-0.202757 -0.06169,-0.05554 -0.113587,-0.106745 -0.12385,-0.131205 0.03912,0.0593 0.07805,0.118865 0.113831,0.180422 0.06025,0.101745 0.112852,0.208141 0.165702,0.314044 0.0831,0.163516 0.170552,0.32473 0.266274,0.480905 0.08307,0.138847 0.167504,0.276939 0.257501,0.41121 0.07991,0.117907 0.160363,0.235815 0.252064,0.344571 0.07079,0.08329 0.143774,0.164604 0.221635,0.241065 0.07742,0.07588 0.131036,0.12351 0.183419,0.167573 0.121231,0.09325 0.24536,0.181016 0.388329,0.23641 -0.09804,-0.04448 -0.188333,-0.104805 -0.267753,-0.178993 -0.306393,-0.335709 -0.443594,-0.696957 -0.339859,-1.164305 0.07848,-0.210375 0.143067,-0.372481 0.298231,-0.530931 0.0053,-0.0054 -0.01096,0.01055 -0.01639,0.01582 -0.03272,0.03156 -0.06648,0.06156 -0.101865,0.09028 -0.101928,0.08091 -0.2047,0.160626 -0.309955,0.236982 -0.138123,0.105848 -0.278288,0.208703 -0.41786,0.312521 -0.154546,0.115968 -0.31022,0.230289 -0.467206,0.342763 -0.18788,0.131545 -0.374783,0.264562 -0.564454,0.393396 -0.195679,0.135677 -0.391727,0.270954 -0.592944,0.397921 -0.201924,0.130222 -0.407037,0.254821 -0.615254,0.374217 -0.199281,0.114064 -0.401059,0.22355 -0.609601,0.318997 -0.216268,0.09941 -0.434883,0.1938 -0.657365,0.277713 -0.212576,0.07699 -0.42783,0.146535 -0.647447,0.199442 -0.182728,0.04177 -0.367837,0.06952 -0.555634,0.06706 -0.228226,-9.03e-4 -0.455313,-0.02506 -0.680881,-0.05998 -0.258984,-0.04394 -0.515785,-0.100805 -0.768454,-0.174151 -0.259109,-0.07771 -0.517499,-0.159229 -0.769105,-0.260024 -0.213212,-0.08739 -0.424738,-0.180099 -0.625612,-0.294786 -0.160236,-0.09328 -0.315922,-0.194695 -0.457188,-0.316671 -0.119078,-0.10091 -0.233993,-0.207545 -0.339817,-0.323033 -0.07676,-0.08809 -0.148866,-0.18023 -0.216109,-0.27619 -0.02817,-0.04245 -0.102832,-0.154312 -0.109666,-0.162199 -0.426864,-0.750088 -2.496615,0.487496 -2.06975,1.237584 z" />
  </g>
</svg>

